<svg version="1.2" xmlns="http://www.w3.org/2000/svg" viewBox="0 0 300 300" width="300" height="300">
	<title>svgwebsite</title>
	<style>
		.s0 { fill: #ffffff } 
	</style>
	<g>
		<path class="s0" d="m22.9 136l-2.7 2.7 8.4 7.3c7.2 6.4 8.2 7.6 7 8.9-1.8 2.2-11.9 20.2-11.5 20.5 0.2 0.1 1.6 1 3.1 1.9l2.7 1.7 6.1-10.9 6.2-10.9 7.6 5.2c4.2 2.9 10 6.3 12.9 7.7 3.7 1.7 5.1 2.8 4.7 3.9-1.2 3.4-6.4 23.3-6.2 23.5 0.2 0.1 1.7 0.7 3.4 1.3l3.2 1 2.8-11c1.6-6 3.1-11.4 3.4-11.8 0.3-0.5 5.5 1.1 11.5 3.5 6.1 2.5 13.4 4.9 16.3 5.6 6 1.2 5.6-0.5 3.1 13.9-0.6 3.6-1.3 7.7-1.6 9.2-0.2 1.6-0.1 2.8 0.4 2.9 0.4 0 2 0.3 3.4 0.5 2.6 0.4 2.7 0.2 3.8-6.3 2.6-15.3 3.2-17.3 5.5-16.8 4.5 1.1 24.2 3.5 28 3.5h4.1l-0.3 12.5-0.3 12.5h4 4.1l-0.7-12.5-0.6-12.5 3.4-0.1c1.9-0.1 3.7-0.1 4.1 0 0.3 0 6.6-0.8 14-1.8 7.3-1 13.4-1.8 13.5-1.7 0.2 0.1 2.9 14.3 3.8 19.9 0.6 3.6 0.8 3.8 3.6 3.3 1.7-0.2 3.3-0.7 3.6-1 0.3-0.3-0.2-4.2-1.1-8.8-3.2-16.9-3.2-15.5 0.6-16.3 4.8-1.1 21.9-7 25.8-9 2-1 3.5-1.3 3.9-0.7 0.3 0.6 1.9 6 3.5 12l2.8 11 3.2-1c4.1-1.4 3.9-1.2 2.7-5-0.9-2.8-4-13.8-5.7-20q-0.4-1.7 1.8-2.4c2.1-0.6 16.1-9.1 21.4-12.9 1.9-1.4 2.3-1 8.2 9.4l6.3 11 2.9-1.7c1.7-0.9 3-1.9 3-2.2 0-0.3-2.9-5.4-6.4-11.4l-6.4-10.9 3.5-2.9c2-1.5 5.6-4.7 8-6.9l4.5-4.1-2.5-2.6-2.5-2.5-7.9 7c-29.4 26.2-64.4 41.1-104.4 44.5-16.9 1.4-36 0-53-3.7-11.3-2.5-14.4-3.5-26.9-8.3-17.4-6.6-39.9-20.6-52.8-32.7l-7.7-7.2z"/>
	</g>
</svg>