<?xml version="1.0" standalone="no"?>
<!DOCTYPE svg PUBLIC "-//W3C//DTD SVG 20010904//EN"
 "http://www.w3.org/TR/2001/REC-SVG-20010904/DTD/svg10.dtd">
<svg version="1.0" xmlns="http://www.w3.org/2000/svg"
 width="300.000000pt" height="300.000000pt" viewBox="0 0 300.000000 300.000000"
 preserveAspectRatio="xMidYMid meet">
<metadata>
Created by potrace 1.10, written by Peter Selinger 2001-2011
</metadata>
<g transform="translate(0.000000,300.000000) scale(0.100000,-0.100000)"
fill="#000000" stroke="none">
<path d="M229 1640 l-27 -27 84 -73 c72 -64 82 -76 70 -89 -18 -22 -119 -202
-115 -205 2 -1 16 -10 31 -19 l27 -17 61 109 62 109 76 -52 c42 -29 100 -63
129 -77 37 -17 51 -28 47 -39 -12 -34 -64 -233 -62 -235 2 -1 17 -7 34 -13
l32 -10 28 110 c16 60 31 114 34 118 3 5 55 -11 115 -35 61 -25 134 -49 163
-56 60 -12 56 5 31 -139 -6 -36 -13 -77 -16 -92 -2 -16 -1 -28 4 -29 4 0 20
-3 34 -5 26 -4 27 -2 38 63 26 153 32 173 55 168 45 -11 242 -35 280 -35 l41
0 -3 -125 -3 -125 40 0 41 0 -7 125 -6 125 34 1 c19 1 37 1 41 0 3 0 66 8 140
18 73 10 134 18 135 17 2 -1 29 -143 38 -199 6 -36 8 -38 36 -33 17 2 33 7 36
10 3 3 -2 42 -11 88 -32 169 -32 155 6 163 48 11 219 70 258 90 20 10 35 13
39 7 3 -6 19 -60 35 -120 l28 -110 32 10 c41 14 39 12 27 50 -9 28 -40 138
-57 200 -3 11 3 19 18 24 21 6 161 91 214 129 19 14 23 10 82 -94 l63 -110 29
17 c17 9 30 19 30 22 0 3 -29 54 -64 114 l-64 109 35 29 c20 15 56 47 80 69
l45 41 -25 26 -25 25 -79 -70 c-294 -262 -644 -411 -1044 -445 -169 -14 -360
0 -530 37 -113 25 -144 35 -269 83 -174 66 -399 206 -528 327 l-77 72 -26 -27z"/>
</g>
</svg>
